# xmcd
#
# Track frame offsets:
#	150
#	10827
#	24894
#	38060
#	54873
#	68974
#	84735
#	102486
#	114448
#	126024
#	142494
#	156967
#	169332
#	183716
#	199432
#	213536
#	228755
#
# Disc length: 3341 seconds
#
# Revision: 1
# Processed by: cddbd v1.5.1PL0 Copyright (c) Steve Scherf et al.
# Submitted via: EasyCDDAExtractor 8.1.4.1
#
DISCID=f30d0b11
DTITLE=Johnny Marks - A Place In My Heart
DYEAR=2003
DGENRE=Country
TTITLE0=If I Could Only Start Over
TTITLE1=Until I Met You
TTITLE2=The Garden Of Your Love
TTITLE3=Falling For You
TTITLE4=Memories
TTITLE5=If It Weren't For Country Music
TTITLE6=A Place In My Heart
TTITLE7=County Of Tyrone
TTITLE8=Today I Started Loving You Again
TTITLE9=Isle Of Innisfree
TTITLE10=Deal Again
TTITLE11=When I Grow Too Old To Dream
TTITLE12=Twice The Speed Of Love
TTITLE13=A Picture In A Frame
TTITLE14=Bucks To The Moon
TTITLE15=I'm Telling Me A Lie
TTITLE16=The Devil And Me
EXTD=
EXTT0=
EXTT1=
EXTT2=
EXTT3=
EXTT4=
EXTT5=
EXTT6=
EXTT7=
EXTT8=
EXTT9=
EXTT10=
EXTT11=
EXTT12=
EXTT13=
EXTT14=
EXTT15=
EXTT16=
PLAYORDER=
